<?xml version="1.0" standalone="no"?><!-- Generator: Gravit.io --><svg xmlns="http://www.w3.org/2000/svg" xmlns:xlink="http://www.w3.org/1999/xlink" style="isolation:isolate" viewBox="0 0 64 64" width="64" height="64"><g><path d=" M 29.86 20.498 C 26.631 20.498 24.013 17.88 24.013 14.65 C 24.013 11.421 26.631 8.803 29.86 8.803 C 33.09 8.803 35.707 11.421 35.707 14.65 C 35.707 17.88 33.09 20.498 29.86 20.498 Z  M 59.051 8.914 C 58.625 7.136 57.969 6.168 56.268 5.674 C 42.822 2.423 21.178 2.423 7.732 5.674 C 6.165 6.291 5.202 6.927 4.949 8.914 C 1.318 33.22 4.514 52.73 4.939 55.144 C 5.324 56.929 5.875 57.919 7.919 58.54 C 15.287 59.937 22.89 60.675 30.509 60.764 C 33.353 51.292 35.42 41.744 34.128 36.88 C 31.033 25.224 12.058 45.424 12.058 45.424 C 23.659 26.411 40.551 14.991 45.55 29.983 C 48.218 37.99 48.174 50.207 47.55 59.85 C 50.42 59.512 53.267 59.073 56.082 58.541 C 58.07 57.99 58.661 56.858 59.061 55.145 C 59.486 52.73 62.682 33.22 59.051 8.914 Z " fill="rgb(0,128,182)" vector-effect="non-scaling-stroke" stroke-width="1" stroke="rgb(0,128,182)" stroke-linejoin="miter" stroke-linecap="butt" stroke-miterlimit="4"/></g></svg>